<svg width="36" height="23" viewBox="0 0 36 23" fill="none" xmlns="http://www.w3.org/2000/svg">
<path d="M25.9741 22.0106L23.2267 0.410591C23.1951 0.284275 23.0688 0.157959 22.9425 0.157959H17.2583V0.157959C17.0222 0.157959 16.9399 0.462501 16.8727 0.688798L13.7214 11.3053C13.6583 11.558 13.3109 11.558 13.2162 11.3053L9.83722 0.347432C9.80564 0.252696 9.71091 0.157959 9.58459 0.157959H3.93196C3.77406 0.157959 3.67933 0.284275 3.64775 0.410591L0.900379 22.0106C0.8688 22.1685 0.995116 22.3264 1.15301 22.3264H6.04775C6.05543 22.3264 6.06296 22.3261 6.07035 22.3255C6.32814 22.3051 6.34362 21.9444 6.36684 21.6868L7.34249 10.8632C7.37406 10.579 7.78459 10.5159 7.87933 10.8001L11.5109 22.1369C11.5425 22.2316 11.6372 22.3264 11.7635 22.3264H15.1109C15.2372 22.3264 15.332 22.2316 15.3635 22.1369L18.9951 10.8001C19.0899 10.5159 19.5004 10.579 19.5004 10.8632L20.5072 21.6939C20.5307 21.9468 20.5446 22.2984 20.7971 22.3249C20.8067 22.3259 20.8166 22.3264 20.8267 22.3264H25.2708C25.5705 22.3264 26.0328 22.3045 25.9741 22.0106V22.0106Z" fill="white"/>
<path d="M34.7856 1.24243H29.6536C29.4902 1.24243 29.3921 1.37804 29.3921 1.51364V6.83613C29.3921 7.00563 29.4902 7.10734 29.6536 7.10734H34.7856C34.9163 7.10734 35.0471 7.00563 35.0471 6.83613V1.51364C35.0471 1.37804 34.9163 1.24243 34.7856 1.24243ZM34.6875 12.3959H29.5882V12.3959C29.348 12.3959 29.2994 12.7175 29.2452 12.9516L27.1693 21.9222C27.104 22.1256 27.2347 22.2951 27.4309 22.2951H30.8631C30.9938 22.2951 31.1246 22.1934 31.1572 22.0917L34.949 12.7688C35.0144 12.5654 34.8836 12.3959 34.6875 12.3959Z" fill="white"/>
</svg>
